<svg width="24" height="24" viewBox="0 0 24 24" fill="none" xmlns="http://www.w3.org/2000/svg">
<path d="M18.8169 4.00011H5.1831C5.02984 3.998 4.87767 4.02591 4.73526 4.08226C4.59286 4.13861 4.46302 4.22229 4.35316 4.32852C4.24329 4.43475 4.15556 4.56145 4.09496 4.70139C4.03437 4.84133 4.0021 4.99176 4 5.1441V18.8559C4.0021 19.0082 4.03437 19.1587 4.09496 19.2986C4.15556 19.4385 4.24329 19.5653 4.35316 19.6715C4.46302 19.7777 4.59286 19.8614 4.73526 19.9177C4.87767 19.9741 5.02984 20.002 5.1831 19.9999H18.8169C18.9702 20.002 19.1223 19.9741 19.2647 19.9177C19.4071 19.8614 19.537 19.7777 19.6468 19.6715C19.7567 19.5653 19.8444 19.4385 19.905 19.2986C19.9656 19.1587 19.9979 19.0082 20 18.8559V5.1441C19.9979 4.99176 19.9656 4.84133 19.905 4.70139C19.8444 4.56145 19.7567 4.43475 19.6468 4.32852C19.537 4.22229 19.4071 4.13861 19.2647 4.08226C19.1223 4.02591 18.9702 3.998 18.8169 4.00011ZM8.85312 17.3919H6.43863V10.192H8.85312V17.3919ZM7.64588 9.18404C7.31289 9.18404 6.99354 9.05256 6.75808 8.81851C6.52262 8.58447 6.39034 8.26704 6.39034 7.93606C6.39034 7.60507 6.52262 7.28764 6.75808 7.0536C6.99354 6.81956 7.31289 6.68807 7.64588 6.68807C7.82269 6.66814 8.00175 6.68556 8.17133 6.73918C8.3409 6.7928 8.49717 6.88142 8.6299 6.99924C8.76264 7.11706 8.86883 7.26141 8.94155 7.42285C9.01426 7.58429 9.05185 7.75918 9.05185 7.93606C9.05185 8.11294 9.01426 8.28782 8.94155 8.44926C8.86883 8.6107 8.76264 8.75506 8.6299 8.87287C8.49717 8.99069 8.3409 9.07931 8.17133 9.13293C8.00175 9.18656 7.82269 9.20397 7.64588 9.18404ZM17.5614 17.3919H15.1469V13.528C15.1469 12.56 14.8008 11.928 13.9235 11.928C13.652 11.93 13.3877 12.0146 13.1661 12.1705C12.9445 12.3264 12.7762 12.5461 12.6841 12.8C12.6211 12.988 12.5938 13.186 12.6036 13.384V17.3839H10.1891V10.184H12.6036V11.2C12.823 10.8217 13.142 10.51 13.5263 10.2986C13.9106 10.0871 14.3457 9.98391 14.7847 10C16.3944 10 17.5614 11.032 17.5614 13.248V17.3919Z" fill="white"/>
</svg>
